<svg width="70" height="46" viewBox="0 0 70 46" fill="none" xmlns="http://www.w3.org/2000/svg">
<path fill-rule="evenodd" clip-rule="evenodd" d="M12.6819 18.0753L21.6825 17.9678L21.7063 19.9616L18.8565 19.9956L18.8509 20.4874L15.644 21.143L15.6308 20.0342L12.7057 20.0692L12.6819 18.0753Z" fill="#F58634"/>
<path d="M27.3778 27.334L32.684 27.2706C35.1047 27.2417 36.3493 26.1052 36.331 24.5735L36.3307 24.5461C36.315 23.2332 35.5278 22.5998 34.2789 22.2455C35.3139 21.8637 35.9759 21.1857 35.9622 20.0369L35.962 20.0095C35.9542 19.3531 35.7021 18.8637 35.3561 18.526C34.7886 17.972 33.9508 17.681 32.6243 17.6969L27.2634 17.761L27.3778 27.334ZM32.8255 20.7994C32.8308 21.237 32.4915 21.4599 31.8213 21.4679L30.4264 21.4846L30.4105 20.1444L31.7917 20.1279C32.4755 20.1198 32.8199 20.3344 32.8253 20.772L32.8256 20.7994H32.8255ZM33.1117 24.147C33.1168 24.5709 32.7645 24.8487 32.067 24.857L30.4669 24.8762L30.4499 23.4539L32.0637 23.4346C32.7612 23.4263 33.1062 23.6958 33.1113 24.1197L33.1116 24.1471L33.1117 24.147Z" fill="#0098DA"/>
<path d="M41.1847 27.5438L44.0444 27.5096L43.9613 20.5537L41.1016 20.5879L41.1847 27.5438Z" fill="#0098DA"/>
<path d="M66.0649 27.7681C68.4827 27.7375 70.024 26.3975 69.9997 24.2411L69.9993 24.2118C69.9762 22.1581 68.4239 21.3855 66.1167 20.9453C65.1499 20.7668 64.9163 20.579 64.9132 20.3003L64.9128 20.2709C64.9101 20.0215 65.1138 19.8429 65.5639 19.8371C66.3998 19.8266 67.4064 20.1219 68.2759 20.8151L69.7159 18.4787C68.6637 17.553 67.3851 17.0997 65.6361 17.1219C63.1669 17.1532 61.8336 18.6812 61.8555 20.6324L61.8559 20.6616C61.8803 22.8327 63.6625 23.4702 65.6869 23.9141C66.6539 24.1218 66.9387 24.2796 66.942 24.573L66.9423 24.6024C66.9454 24.8811 66.7286 25.0452 66.1757 25.0522C65.1082 25.0658 63.9984 24.7424 63.0112 23.8893L61.4282 26.0954C62.5859 27.2397 64.2256 27.7911 66.0647 27.7679L66.0649 27.7681Z" fill="#0098DA"/>
<path fill-rule="evenodd" clip-rule="evenodd" d="M15.7339 22.2224L18.6765 20.9785L18.9321 27.3021L15.4875 27.4041L15.7339 22.2224Z" fill="#0098DA"/>
<path d="M41.2229 15.8233L44.0828 15.7891L44.1108 18.1389L41.251 18.1731L41.2229 15.8233Z" fill="#ED3237"/>
<path d="M57.2735 27.2013L57.2394 25.0538L52.7899 25.1193L52.7165 17.5322L49.8567 17.5704L49.9563 26.8972L49.968 26.8971L49.9728 27.3008L57.2735 27.2013Z" fill="#0098DA"/>
<path fill-rule="evenodd" clip-rule="evenodd" d="M18.8067 6.20099C9.72349 9.3158 6.02431 16.5061 6.52218 24.04C7.30222 35.8434 16.9878 42.631 29.2336 40.6363C36.8365 39.3978 45.8127 35.429 52.2465 36.7402C58.6802 38.0513 60.4567 41.017 60.4567 41.017C51.8868 35.6044 39.3299 41.9922 30.04 43.6076C19.7937 45.3891 9.74963 42.3241 5.72347 31.9904C4.16762 27.9973 3.53955 23.1612 4.88991 18.2657C6.20678 13.4914 13.1589 5.52986 18.8067 6.20099Z" fill="#080341"/>
<path fill-rule="evenodd" clip-rule="evenodd" d="M18.844 45.5305C8.5043 45.3218 0.125868 36.9386 0.00139961 26.5221C-0.0711652 20.4438 2.68319 14.9909 7.04243 11.4121C2.51441 16.7489 0.918604 24.6948 3.53492 32.1471C6.12709 39.5308 12.1684 44.4759 18.844 45.5305Z" fill="#F58634"/>
<path fill-rule="evenodd" clip-rule="evenodd" d="M25.8526 0.000124589L30.064 4.00389C30.064 4.00389 34.4645 3.42997 35.4689 3.66907C36.4734 3.9083 36.3778 4.3387 35.1341 4.67352C33.8906 5.00834 30.4945 5.29524 30.4945 5.29524L27.3376 10.461L28.6258 5.53447L24.1599 5.51692L24.2825 5.09696L28.6165 4.60382L25.8524 0L25.8526 0.000124589Z" fill="#F58634"/>
</svg>
